<mxfile host="app.diagrams.net" modified="2024-04-29T23:55:11.603Z" agent="Mozilla/5.0 (Windows NT 10.0; Win64; x64; rv:124.0) Gecko/20100101 Firefox/124.0" etag="FXYkgZKND__wVr-czVjp" version="24.3.0" type="device">
  <diagram name="Seite-1" id="b_AGeAWhSSDeno7w7Fma">
    <mxGraphModel dx="1434" dy="794" grid="0" gridSize="10" guides="1" tooltips="1" connect="1" arrows="1" fold="1" page="1" pageScale="1" pageWidth="1169" pageHeight="1654" math="0" shadow="0">
      <root>
        <mxCell id="0" />
        <mxCell id="1" parent="0" />
        <mxCell id="LP8jPOzDIxKEW4RSeFAv-51" value="" style="edgeStyle=orthogonalEdgeStyle;rounded=0;orthogonalLoop=1;jettySize=auto;html=1;" edge="1" parent="1" source="LP8jPOzDIxKEW4RSeFAv-2" target="LP8jPOzDIxKEW4RSeFAv-50">
          <mxGeometry relative="1" as="geometry" />
        </mxCell>
        <mxCell id="LP8jPOzDIxKEW4RSeFAv-2" value="&lt;font size=&quot;1&quot;&gt;&lt;b style=&quot;font-size: 18px;&quot;&gt;Input: audio features&lt;/b&gt;&lt;/font&gt;" style="rounded=0;whiteSpace=wrap;html=1;" vertex="1" parent="1">
          <mxGeometry x="303" y="6" width="236" height="60" as="geometry" />
        </mxCell>
        <mxCell id="LP8jPOzDIxKEW4RSeFAv-3" value="&lt;font size=&quot;1&quot;&gt;&lt;b style=&quot;font-size: 18px;&quot;&gt;Input: video features&lt;/b&gt;&lt;/font&gt;" style="rounded=0;whiteSpace=wrap;html=1;" vertex="1" parent="1">
          <mxGeometry x="608" y="6" width="236" height="60" as="geometry" />
        </mxCell>
        <mxCell id="LP8jPOzDIxKEW4RSeFAv-4" value="&lt;font size=&quot;1&quot;&gt;&lt;b style=&quot;font-size: 18px;&quot;&gt;Padding&lt;/b&gt;&lt;/font&gt;" style="rounded=0;whiteSpace=wrap;html=1;" vertex="1" parent="1">
          <mxGeometry x="354" y="230" width="134" height="60" as="geometry" />
        </mxCell>
        <mxCell id="LP8jPOzDIxKEW4RSeFAv-5" value="&lt;font style=&quot;font-size: 18px;&quot;&gt;&lt;b&gt;Transfomer Block&lt;br&gt;&lt;/b&gt;&lt;/font&gt;" style="rounded=0;whiteSpace=wrap;html=1;fillColor=#dae8fc;strokeColor=#6c8ebf;" vertex="1" parent="1">
          <mxGeometry x="419" y="389" width="273" height="60" as="geometry" />
        </mxCell>
        <mxCell id="LP8jPOzDIxKEW4RSeFAv-33" value="" style="edgeStyle=orthogonalEdgeStyle;rounded=0;orthogonalLoop=1;jettySize=auto;html=1;" edge="1" parent="1" source="LP8jPOzDIxKEW4RSeFAv-6" target="LP8jPOzDIxKEW4RSeFAv-29">
          <mxGeometry relative="1" as="geometry" />
        </mxCell>
        <mxCell id="LP8jPOzDIxKEW4RSeFAv-6" value="&lt;font style=&quot;font-size: 18px;&quot;&gt;&lt;b&gt;Transfomer Block&lt;br&gt;&lt;/b&gt;&lt;/font&gt;" style="rounded=0;whiteSpace=wrap;html=1;fillColor=#dae8fc;strokeColor=#6c8ebf;" vertex="1" parent="1">
          <mxGeometry x="412" y="517" width="273" height="60" as="geometry" />
        </mxCell>
        <mxCell id="LP8jPOzDIxKEW4RSeFAv-7" style="edgeStyle=orthogonalEdgeStyle;rounded=0;orthogonalLoop=1;jettySize=auto;html=1;exitX=0.5;exitY=1;exitDx=0;exitDy=0;entryX=0.626;entryY=0;entryDx=0;entryDy=0;entryPerimeter=0;" edge="1" parent="1" source="LP8jPOzDIxKEW4RSeFAv-3" target="LP8jPOzDIxKEW4RSeFAv-5">
          <mxGeometry relative="1" as="geometry" />
        </mxCell>
        <mxCell id="LP8jPOzDIxKEW4RSeFAv-8" style="edgeStyle=orthogonalEdgeStyle;rounded=0;orthogonalLoop=1;jettySize=auto;html=1;exitX=0.5;exitY=1;exitDx=0;exitDy=0;entryX=0.44;entryY=0;entryDx=0;entryDy=0;entryPerimeter=0;" edge="1" parent="1" source="LP8jPOzDIxKEW4RSeFAv-4" target="LP8jPOzDIxKEW4RSeFAv-5">
          <mxGeometry relative="1" as="geometry" />
        </mxCell>
        <mxCell id="LP8jPOzDIxKEW4RSeFAv-12" value="" style="endArrow=classic;html=1;rounded=0;" edge="1" parent="1">
          <mxGeometry width="50" height="50" relative="1" as="geometry">
            <mxPoint x="478" y="339" as="sourcePoint" />
            <mxPoint x="478" y="389" as="targetPoint" />
          </mxGeometry>
        </mxCell>
        <mxCell id="LP8jPOzDIxKEW4RSeFAv-18" value="" style="group" vertex="1" connectable="0" parent="1">
          <mxGeometry x="423" y="449" width="251" height="67" as="geometry" />
        </mxCell>
        <mxCell id="LP8jPOzDIxKEW4RSeFAv-13" value="" style="edgeStyle=orthogonalEdgeStyle;rounded=0;orthogonalLoop=1;jettySize=auto;html=1;fontSize=8;" edge="1" parent="LP8jPOzDIxKEW4RSeFAv-18">
          <mxGeometry relative="1" as="geometry">
            <mxPoint x="129.8881118881119" as="sourcePoint" />
            <mxPoint x="129.8881118881119" y="67" as="targetPoint" />
          </mxGeometry>
        </mxCell>
        <mxCell id="LP8jPOzDIxKEW4RSeFAv-14" value="" style="edgeStyle=segmentEdgeStyle;endArrow=classic;html=1;curved=0;rounded=0;endSize=8;startSize=8;fontSize=8;" edge="1" parent="LP8jPOzDIxKEW4RSeFAv-18">
          <mxGeometry width="50" height="50" relative="1" as="geometry">
            <mxPoint y="19.541666666666664" as="sourcePoint" />
            <mxPoint x="251" y="67" as="targetPoint" />
          </mxGeometry>
        </mxCell>
        <mxCell id="LP8jPOzDIxKEW4RSeFAv-15" value="" style="edgeStyle=segmentEdgeStyle;endArrow=classic;html=1;curved=0;rounded=0;endSize=8;startSize=8;fontSize=8;" edge="1" parent="LP8jPOzDIxKEW4RSeFAv-18">
          <mxGeometry width="50" height="50" relative="1" as="geometry">
            <mxPoint y="19.541666666666664" as="sourcePoint" />
            <mxPoint y="67" as="targetPoint" />
          </mxGeometry>
        </mxCell>
        <mxCell id="LP8jPOzDIxKEW4RSeFAv-24" value="&lt;b style=&quot;font-size: 14px;&quot;&gt;q&lt;/b&gt;" style="text;html=1;align=center;verticalAlign=middle;whiteSpace=wrap;rounded=0;" vertex="1" parent="LP8jPOzDIxKEW4RSeFAv-18">
          <mxGeometry x="-26" y="26" width="22" height="30" as="geometry" />
        </mxCell>
        <mxCell id="LP8jPOzDIxKEW4RSeFAv-25" value="&lt;b&gt;&lt;font style=&quot;font-size: 14px;&quot;&gt;k&lt;/font&gt;&lt;/b&gt;" style="text;html=1;align=center;verticalAlign=middle;whiteSpace=wrap;rounded=0;" vertex="1" parent="LP8jPOzDIxKEW4RSeFAv-18">
          <mxGeometry x="102" y="26" width="22" height="30" as="geometry" />
        </mxCell>
        <mxCell id="LP8jPOzDIxKEW4RSeFAv-26" value="&lt;b&gt;&lt;font style=&quot;font-size: 14px;&quot;&gt;v&lt;/font&gt;&lt;/b&gt;" style="text;html=1;align=center;verticalAlign=middle;whiteSpace=wrap;rounded=0;" vertex="1" parent="LP8jPOzDIxKEW4RSeFAv-18">
          <mxGeometry x="227" y="26" width="22" height="30" as="geometry" />
        </mxCell>
        <mxCell id="LP8jPOzDIxKEW4RSeFAv-19" value="&lt;b&gt;&lt;font style=&quot;font-size: 14px;&quot;&gt;k&lt;/font&gt;&lt;/b&gt;" style="text;html=1;align=center;verticalAlign=middle;whiteSpace=wrap;rounded=0;" vertex="1" parent="1">
          <mxGeometry x="446" y="344" width="22" height="30" as="geometry" />
        </mxCell>
        <mxCell id="LP8jPOzDIxKEW4RSeFAv-21" value="&lt;b&gt;&lt;font style=&quot;font-size: 14px;&quot;&gt;v&lt;/font&gt;&lt;/b&gt;" style="text;html=1;align=center;verticalAlign=middle;whiteSpace=wrap;rounded=0;" vertex="1" parent="1">
          <mxGeometry x="510" y="344" width="22" height="30" as="geometry" />
        </mxCell>
        <mxCell id="LP8jPOzDIxKEW4RSeFAv-22" value="&lt;b style=&quot;font-size: 14px;&quot;&gt;q&lt;/b&gt;" style="text;html=1;align=center;verticalAlign=middle;whiteSpace=wrap;rounded=0;" vertex="1" parent="1">
          <mxGeometry x="563" y="344" width="22" height="30" as="geometry" />
        </mxCell>
        <mxCell id="LP8jPOzDIxKEW4RSeFAv-32" value="" style="group" vertex="1" connectable="0" parent="1">
          <mxGeometry x="435" y="641" width="227" height="200" as="geometry" />
        </mxCell>
        <mxCell id="LP8jPOzDIxKEW4RSeFAv-28" value="" style="edgeStyle=orthogonalEdgeStyle;rounded=0;orthogonalLoop=1;jettySize=auto;html=1;" edge="1" parent="LP8jPOzDIxKEW4RSeFAv-32" source="LP8jPOzDIxKEW4RSeFAv-29" target="LP8jPOzDIxKEW4RSeFAv-30">
          <mxGeometry relative="1" as="geometry" />
        </mxCell>
        <mxCell id="LP8jPOzDIxKEW4RSeFAv-29" value="&lt;font style=&quot;font-size: 18px;&quot;&gt;&lt;b&gt;AVG Pool&lt;br&gt;&lt;/b&gt;&lt;/font&gt;" style="rounded=0;whiteSpace=wrap;html=1;" vertex="1" parent="LP8jPOzDIxKEW4RSeFAv-32">
          <mxGeometry x="57" width="114" height="60" as="geometry" />
        </mxCell>
        <mxCell id="LP8jPOzDIxKEW4RSeFAv-30" value="&lt;font style=&quot;font-size: 18px;&quot;&gt;&lt;b&gt;Output Layer&lt;br&gt;&lt;/b&gt;&lt;/font&gt;" style="rounded=0;whiteSpace=wrap;html=1;" vertex="1" parent="LP8jPOzDIxKEW4RSeFAv-32">
          <mxGeometry y="140" width="227" height="60" as="geometry" />
        </mxCell>
        <mxCell id="LP8jPOzDIxKEW4RSeFAv-53" value="&lt;font style=&quot;font-size: 14px;&quot;&gt;&lt;b&gt;temporal dimension&lt;/b&gt;&lt;/font&gt;" style="text;html=1;align=center;verticalAlign=middle;whiteSpace=wrap;rounded=0;" vertex="1" parent="LP8jPOzDIxKEW4RSeFAv-32">
          <mxGeometry x="-30" y="2" width="80" height="56" as="geometry" />
        </mxCell>
        <mxCell id="LP8jPOzDIxKEW4RSeFAv-47" value="" style="group" vertex="1" connectable="0" parent="1">
          <mxGeometry x="823" y="237" width="179" height="508" as="geometry" />
        </mxCell>
        <mxCell id="LP8jPOzDIxKEW4RSeFAv-34" value="" style="rounded=0;whiteSpace=wrap;html=1;fillColor=#dae8fc;strokeColor=#6c8ebf;" vertex="1" parent="LP8jPOzDIxKEW4RSeFAv-47">
          <mxGeometry y="30" width="179" height="478" as="geometry" />
        </mxCell>
        <mxCell id="LP8jPOzDIxKEW4RSeFAv-35" value="" style="edgeStyle=orthogonalEdgeStyle;rounded=0;orthogonalLoop=1;jettySize=auto;html=1;" edge="1" parent="LP8jPOzDIxKEW4RSeFAv-47" target="LP8jPOzDIxKEW4RSeFAv-37">
          <mxGeometry relative="1" as="geometry">
            <mxPoint x="85" y="74" as="sourcePoint" />
          </mxGeometry>
        </mxCell>
        <mxCell id="LP8jPOzDIxKEW4RSeFAv-36" value="" style="edgeStyle=orthogonalEdgeStyle;rounded=0;orthogonalLoop=1;jettySize=auto;html=1;" edge="1" parent="LP8jPOzDIxKEW4RSeFAv-47" source="LP8jPOzDIxKEW4RSeFAv-37" target="LP8jPOzDIxKEW4RSeFAv-39">
          <mxGeometry relative="1" as="geometry" />
        </mxCell>
        <mxCell id="LP8jPOzDIxKEW4RSeFAv-37" value="&lt;font style=&quot;font-size: 15px;&quot;&gt;&lt;b&gt;Multi-Head attention&lt;br&gt;&lt;/b&gt;&lt;/font&gt;" style="rounded=0;whiteSpace=wrap;html=1;" vertex="1" parent="LP8jPOzDIxKEW4RSeFAv-47">
          <mxGeometry x="25" y="127.5" width="120" height="60" as="geometry" />
        </mxCell>
        <mxCell id="LP8jPOzDIxKEW4RSeFAv-38" value="" style="edgeStyle=orthogonalEdgeStyle;rounded=0;orthogonalLoop=1;jettySize=auto;html=1;" edge="1" parent="LP8jPOzDIxKEW4RSeFAv-47" source="LP8jPOzDIxKEW4RSeFAv-39" target="LP8jPOzDIxKEW4RSeFAv-40">
          <mxGeometry relative="1" as="geometry" />
        </mxCell>
        <mxCell id="LP8jPOzDIxKEW4RSeFAv-39" value="&lt;font style=&quot;font-size: 15px;&quot;&gt;&lt;b&gt;Add &amp;amp; Norm&lt;br&gt;&lt;/b&gt;&lt;/font&gt;" style="rounded=0;whiteSpace=wrap;html=1;" vertex="1" parent="LP8jPOzDIxKEW4RSeFAv-47">
          <mxGeometry x="25" y="231" width="120" height="60" as="geometry" />
        </mxCell>
        <mxCell id="LP8jPOzDIxKEW4RSeFAv-40" value="&lt;font style=&quot;font-size: 15px;&quot;&gt;&lt;b&gt;Feed Forward&lt;br&gt;&lt;/b&gt;&lt;/font&gt;" style="rounded=0;whiteSpace=wrap;html=1;" vertex="1" parent="LP8jPOzDIxKEW4RSeFAv-47">
          <mxGeometry x="25" y="344" width="120" height="60" as="geometry" />
        </mxCell>
        <mxCell id="LP8jPOzDIxKEW4RSeFAv-41" value="" style="shape=waypoint;sketch=0;fillStyle=solid;size=6;pointerEvents=1;points=[];fillColor=none;resizable=0;rotatable=0;perimeter=centerPerimeter;snapToPoint=1;" vertex="1" parent="LP8jPOzDIxKEW4RSeFAv-47">
          <mxGeometry x="75" y="88" width="20" height="20" as="geometry" />
        </mxCell>
        <mxCell id="LP8jPOzDIxKEW4RSeFAv-42" value="" style="edgeStyle=orthogonalEdgeStyle;rounded=0;orthogonalLoop=1;jettySize=auto;html=1;" edge="1" parent="LP8jPOzDIxKEW4RSeFAv-47">
          <mxGeometry relative="1" as="geometry">
            <mxPoint x="86" y="404" as="sourcePoint" />
            <mxPoint x="86" y="458" as="targetPoint" />
          </mxGeometry>
        </mxCell>
        <mxCell id="LP8jPOzDIxKEW4RSeFAv-43" value="" style="shape=waypoint;sketch=0;fillStyle=solid;size=6;pointerEvents=1;points=[];fillColor=none;resizable=0;rotatable=0;perimeter=centerPerimeter;snapToPoint=1;" vertex="1" parent="LP8jPOzDIxKEW4RSeFAv-47">
          <mxGeometry x="76" y="418" width="20" height="20" as="geometry" />
        </mxCell>
        <mxCell id="LP8jPOzDIxKEW4RSeFAv-44" value="&lt;font style=&quot;font-size: 13px;&quot;&gt;&lt;b&gt;&lt;font style=&quot;font-size: 13px;&quot;&gt;Positional Encoding&lt;/font&gt;&lt;/b&gt;&lt;/font&gt;" style="text;html=1;align=center;verticalAlign=middle;whiteSpace=wrap;rounded=0;" vertex="1" parent="LP8jPOzDIxKEW4RSeFAv-47">
          <mxGeometry x="95" y="78.5" width="67" height="39" as="geometry" />
        </mxCell>
        <mxCell id="LP8jPOzDIxKEW4RSeFAv-45" value="&lt;font style=&quot;font-size: 13px;&quot;&gt;&lt;b&gt;&lt;font style=&quot;font-size: 13px;&quot;&gt;Positional Encoding&lt;/font&gt;&lt;/b&gt;&lt;/font&gt;" style="text;html=1;align=center;verticalAlign=middle;whiteSpace=wrap;rounded=0;" vertex="1" parent="LP8jPOzDIxKEW4RSeFAv-47">
          <mxGeometry x="95" y="408.5" width="67" height="39" as="geometry" />
        </mxCell>
        <mxCell id="LP8jPOzDIxKEW4RSeFAv-46" value="&lt;b&gt;&lt;font style=&quot;font-size: 15px;&quot;&gt;Transformer Block&lt;/font&gt;&lt;/b&gt;" style="text;html=1;align=center;verticalAlign=middle;whiteSpace=wrap;rounded=0;shadow=0;" vertex="1" parent="LP8jPOzDIxKEW4RSeFAv-47">
          <mxGeometry x="19.5" width="140" height="30" as="geometry" />
        </mxCell>
        <mxCell id="LP8jPOzDIxKEW4RSeFAv-48" value="&lt;font style=&quot;font-size: 14px;&quot;&gt;&lt;b&gt;self-attention&lt;/b&gt;&lt;/font&gt;" style="text;html=1;align=center;verticalAlign=middle;whiteSpace=wrap;rounded=0;" vertex="1" parent="1">
          <mxGeometry x="337" y="523.5" width="67" height="47" as="geometry" />
        </mxCell>
        <mxCell id="LP8jPOzDIxKEW4RSeFAv-49" value="&lt;font style=&quot;font-size: 14px;&quot;&gt;&lt;b&gt;cross-attention&lt;/b&gt;&lt;/font&gt;" style="text;html=1;align=center;verticalAlign=middle;whiteSpace=wrap;rounded=0;" vertex="1" parent="1">
          <mxGeometry x="343" y="395.5" width="67" height="47" as="geometry" />
        </mxCell>
        <mxCell id="LP8jPOzDIxKEW4RSeFAv-52" value="" style="edgeStyle=orthogonalEdgeStyle;rounded=0;orthogonalLoop=1;jettySize=auto;html=1;" edge="1" parent="1" source="LP8jPOzDIxKEW4RSeFAv-50" target="LP8jPOzDIxKEW4RSeFAv-4">
          <mxGeometry relative="1" as="geometry" />
        </mxCell>
        <mxCell id="LP8jPOzDIxKEW4RSeFAv-50" value="&lt;font style=&quot;font-size: 18px;&quot;&gt;&lt;b&gt;Linear, 256&lt;br&gt;&lt;/b&gt;&lt;/font&gt;" style="rounded=0;whiteSpace=wrap;html=1;" vertex="1" parent="1">
          <mxGeometry x="336.5" y="124" width="169" height="49" as="geometry" />
        </mxCell>
      </root>
    </mxGraphModel>
  </diagram>
</mxfile>
